<?xml version="1.0" encoding="UTF-8"?>
<svg width="147px" height="197px" viewBox="0 0 147 197" version="1.1" xmlns="http://www.w3.org/2000/svg" xmlns:xlink="http://www.w3.org/1999/xlink">
    <!-- Generator: Sketch 49.3 (51167) - http://www.bohemiancoding.com/sketch -->
    <title>Group</title>
    <desc>Created with Sketch.</desc>
    <defs></defs>
    <g id="20191009" stroke="none" stroke-width="1" fill="none" fill-rule="evenodd">
        <g id="404" transform="translate(-302.000000, -301.000000)" fill="#A9A9A9">
            <g id="Group" transform="translate(302.000000, 301.000000)">
                <path d="M112.411269,0 L34.588113,0 C28.7497802,0 24,4.74962565 24,10.588113 L24,88.4112687 C24,94.2502198 28.7497802,99 34.588113,99 L80.0412854,99 C81.7489308,99 83.1328857,97.6160451 83.1328857,95.9083996 C83.1328857,94.2013725 81.7489308,92.8167993 80.0412854,92.8167993 L34.588113,92.8167993 C32.158888,92.8167993 30.1832007,90.841112 30.1832007,88.4112687 L30.1832007,10.588113 C30.1832007,8.15888796 32.158888,6.18320074 34.588113,6.18320074 L112.411269,6.18320074 C114.840494,6.18320074 116.816181,8.15888796 116.816181,10.588113 L116.816181,80.4400409 C116.816181,86.7265011 115.741386,90.5192764 113.620857,91.7135617 C111.319625,93.0100243 108.008211,91.0040394 106.915949,90.341664 L106.915331,90.341664 C103.733765,88.1208129 91.4041534,76.8370898 85.0023765,70.8784939 C87.883748,66.9753484 89.5890748,62.1501331 89.5890748,56.9257922 C89.5890748,43.938752 79.0606297,33.4103069 66.0742078,33.4103069 C53.0870129,33.4103069 42.5591862,43.938752 42.5591862,56.9257922 C42.5591862,69.9129871 53.0870129,80.4400409 66.0742078,80.4400409 C71.6070904,80.4400409 76.6930822,78.5283498 80.7096894,75.3299347 C83.5924521,78.0132892 99.2116809,92.5045476 103.374366,95.4108065 L103.539921,95.5261232 L103.710732,95.6293827 C104.545774,96.1354777 106.283098,97.1884768 108.465305,97.8194724 C111.454882,98.6835747 114.286788,98.4354738 116.654954,97.1009845 C118.956805,95.8051402 120.643273,93.6246344 121.669221,90.6219176 C122.564703,88.0000859 123,84.6699685 123,80.4406592 L123,10.588113 C122.999382,4.74962565 118.249756,0 112.411269,0 Z M66.500078,74 C61.8254617,74 57.430854,72.1794993 54.1256895,68.8745351 C50.8200568,65.5694148 49,61.174866 49,56.5003122 C49,51.8259144 50.8200568,47.4313656 54.1256895,44.125621 C57.430854,40.8205007 61.8254617,39 66.500078,39 C71.1745383,39 75.5685216,40.8205007 78.8743105,44.125621 C82.1794749,47.4313656 84,51.8259144 84,56.5003122 C84,61.1742417 82.1794749,65.5687905 78.8743105,68.8745351 C75.5685216,72.1794993 71.1745383,74 66.500078,74 Z M97.8195913,33 L90.1804087,33 C88.4237099,33 87,31.65705 87,30 C87,28.34355 88.4237099,27 90.1804087,27 L97.8195913,27 C99.5762901,27 101,28.34355 101,30 C101,31.65705 99.5762901,33 97.8195913,33 Z M97.8910824,18 L48.1089176,18 C46.391707,18 45,16.65705 45,15 C45,13.34355 46.391707,12 48.1089176,12 L97.8910824,12 C99.608293,12 101,13.34355 101,15 C101,16.65705 99.608293,18 97.8910824,18 Z" id="wendang"></path>
                <path d="M68.6260427,52.2467622 C69.2004183,51.5447475 69.48,50.8069626 69.48,50.04 C69.48,48.9937092 69.1867635,48.1911673 68.6528932,47.6271068 C68.1078675,47.0820811 67.2921195,46.8 66.16,46.8 C64.6888005,46.8 63.7748673,47.1948191 63.2041761,48.0343911 C62.6784396,48.7456817 62.4,49.8510026 62.4,51.36 L62.4,52.36 L55.84,52.36 L55.84,51.36 C55.84,48.115242 56.7930703,45.5441687 58.7412605,43.6846238 C60.662443,41.8081199 63.2368709,40.88 66.44,40.88 C69.3080099,40.88 71.6523334,41.6577377 73.4185046,43.2474233 C75.2446342,44.8452867 76.16,47.0421646 76.16,49.76 C76.16,51.9352698 75.5925016,53.7966645 74.4232941,55.3489647 C73.9979956,55.8215187 72.7355974,56.9851205 70.8801844,58.6082213 C70.2926015,59.0978737 69.848205,59.6596579 69.5344272,60.2872136 C69.2000236,60.9560208 69.04,61.6441223 69.04,62.44 L69.04,64 L62.44,64 L62.44,62.44 C62.44,60.71604 62.7284432,59.2627301 63.3389983,58.0861844 C63.9271391,56.8646613 65.5101194,55.1461884 68.2043001,52.7384301 L68.6260427,52.2467622 Z M65.72,64.96 C66.8521178,64.96 67.8555268,65.334606 68.6671068,66.0928932 C69.4312566,66.8570431 69.84,67.8380272 69.84,68.96 C69.84,70.1106079 69.4098903,71.1373213 68.6023183,71.8910553 C67.8111979,72.6294343 66.8450802,73 65.72,73 C64.6106915,73 63.6422973,72.6020298 62.8376817,71.8510553 C62.0354771,71.1023309 61.64,70.1204567 61.64,68.96 C61.64,67.7995433 62.0354771,66.8176691 62.8376817,66.0689447 C63.6288021,65.3305657 64.5949198,64.96 65.72,64.96 Z" id="？" fill-rule="nonzero"></path>
                <path d="M46.14,187.54 L41.37,187.54 L41.37,196 L27.33,196 L27.33,187.54 L0.78,187.54 L0.78,173.5 L22.02,131.92 L38.22,131.92 L16.98,173.5 L27.33,173.5 L27.33,165.04 L41.37,165.04 L41.37,173.5 L46.14,173.5 L46.14,187.54 Z M94.11,176.56 C94.11,189.79 84.12,196.54 73.5,196.54 C62.88,196.54 52.89,189.79 52.89,176.56 L52.89,151.36 C52.89,138.13 62.88,131.38 73.5,131.38 C84.12,131.38 94.11,138.13 94.11,151.36 L94.11,176.56 Z M79.35,176.65 L79.35,151.36 C79.35,146.86 76.65,144.7 73.5,144.7 C70.35,144.7 67.65,146.86 67.65,151.36 L67.65,176.65 C67.65,181.15 70.35,183.22 73.5,183.22 C76.65,183.22 79.35,181.15 79.35,176.65 Z M146.22,187.54 L141.45,187.54 L141.45,196 L127.41,196 L127.41,187.54 L100.86,187.54 L100.86,173.5 L122.1,131.92 L138.3,131.92 L117.06,173.5 L127.41,173.5 L127.41,165.04 L141.45,165.04 L141.45,173.5 L146.22,173.5 L146.22,187.54 Z" id="404"></path>
            </g>
        </g>
    </g>
</svg>