<?xml version="1.0" encoding="UTF-8"?>
<svg width="56px" height="56px" viewBox="0 0 56 56" version="1.1" xmlns="http://www.w3.org/2000/svg" xmlns:xlink="http://www.w3.org/1999/xlink">
    <!-- Generator: Sketch 48.2 (47327) - http://www.bohemiancoding.com/sketch -->
    <title>alipay</title>
    <desc>Created with Sketch.</desc>
    <defs></defs>
    <g id="绑定支付宝2" stroke="none" stroke-width="1" fill="none" fill-rule="evenodd" transform="translate(-48.000000, -1088.000000)">
        <g id="Group-3" transform="translate(24.000000, 1072.000000)">
            <g id="alipay" transform="translate(24.000000, 16.000000)">
                <rect id="Rectangle-17" fill="#6AADE8" x="0" y="0" width="56" height="56"></rect>
                <g id="支付宝-(4)" transform="translate(9.333333, 13.222222)" fill="#FFFFFF" fill-rule="nonzero">
                    <path d="M23.8318279,18.6102658 C26.3907207,13.9575971 27.3212726,9.53782768 27.3212726,9.53782768 L26.8559285,9.53782768 L22.9013214,9.53782768 L18.7140423,9.53782768 L18.7140423,6.28087327 L28.949659,6.28087327 L28.949659,4.88520443 L18.7140423,4.88520443 L18.7140423,0 L14.0615554,0 L14.0615554,4.88520443 L4.75649061,4.88520443 L4.75649061,6.28087327 L14.0615554,6.28087327 L14.0615554,9.53782768 L6.15220486,9.53782768 L6.15220486,10.933542 L22.203487,10.933542 C22.203487,11.166214 22.203487,11.166214 21.9708149,11.3987043 C21.9708149,13.0270907 20.8077727,15.3534477 19.8772662,17.2143698 C8.01326325,12.5618374 4.5237731,15.3534477 3.59326663,15.8186101 C-4.31594755,21.4016035 3.1281497,28.3805384 4.29132824,28.1478663 C12.665932,30.0088793 18.0162079,26.51948 21.7383247,22.0994833 C21.970815,22.3322008 22.203487,22.3322008 22.4361591,22.3322008 C24.9950519,23.7278697 37.3242627,29.5435351 37.3242627,29.5435351 L37.3242627,22.5648729 C35.4631589,22.5648729 28.7169869,20.2385613 23.8318279,18.6102658 Z M17.7835358,20.7038145 C11.9678704,28.1478663 4.98920809,25.8216001 3.82598411,25.3562106 C1.03460098,24.6583762 0.104049067,19.5405451 3.59331204,17.9121588 C9.4089775,16.0512821 14.5268086,18.1448309 18.2488799,20.0058892 C18.0161624,20.4711425 17.7835358,20.7038145 17.7835358,20.7038145 Z" id="Shape"></path>
                </g>
            </g>
        </g>
    </g>
</svg>