<?xml version="1.0" encoding="UTF-8"?>
<svg width="68px" height="68px" viewBox="0 0 68 68" version="1.1" xmlns="http://www.w3.org/2000/svg" xmlns:xlink="http://www.w3.org/1999/xlink">
    <!-- Generator: Sketch 48.2 (47327) - http://www.bohemiancoding.com/sketch -->
    <title>step1_underway</title>
    <desc>Created with Sketch.</desc>
    <defs>
        <circle id="path-1" cx="24" cy="24" r="24"></circle>
        <filter x="-36.5%" y="-26.0%" width="172.9%" height="172.9%" filterUnits="objectBoundingBox" id="filter-2">
            <feOffset dx="0" dy="5" in="SourceAlpha" result="shadowOffsetOuter1"></feOffset>
            <feGaussianBlur stdDeviation="5" in="shadowOffsetOuter1" result="shadowBlurOuter1"></feGaussianBlur>
            <feColorMatrix values="0 0 0 0 0.333333333   0 0 0 0 0.333333333   0 0 0 0 0.333333333  0 0 0 0.2 0" type="matrix" in="shadowBlurOuter1"></feColorMatrix>
        </filter>
    </defs>
    <g id="绑定支付宝1" stroke="none" stroke-width="1" fill="none" fill-rule="evenodd" transform="translate(-94.000000, -171.000000)">
        <g id="step1_underway" transform="translate(104.000000, 176.000000)">
            <g id="Oval-2">
                <use fill="black" fill-opacity="1" filter="url(#filter-2)" xlink:href="#path-1"></use>
                <use fill="#555555" fill-rule="evenodd" xlink:href="#path-1"></use>
            </g>
            <g id="Group" transform="translate(24.000000, 24.000000) rotate(-45.000000) translate(-24.000000, -24.000000) translate(8.000000, 18.000000)" stroke="#FFFFFF" stroke-width="3">
                <path d="M10.5458365,10.5 L18.4360659,5.23984712 C18.0748328,3.1165596 16.2262002,1.5 14,1.5 L6,1.5 C3.51471863,1.5 1.5,3.51471863 1.5,6 C1.5,8.48528137 3.51471863,10.5 6,10.5 L10.5458365,10.5 Z" id="Rectangle-28-Copy"></path>
                <path d="M21.4541635,1.5 L13.5639341,6.76015288 C13.9251672,8.8834404 15.7737998,10.5 18,10.5 L26,10.5 C28.4852814,10.5 30.5,8.48528137 30.5,6 C30.5,3.51471863 28.4852814,1.5 26,1.5 L21.4541635,1.5 Z" id="Rectangle-28-Copy-2"></path>
            </g>
        </g>
    </g>
</svg>